# xmcd
# 
# Track frame offsets:
#     150
#     22525
#     40626
#     67765
#     88466
#     104272
#     132864
#     156967
#     178233
# 
# Disc length: 2704
# 
# Revision: 1
# Processed by: cddbd v1.5.2PL0 Copyright (c) Steve Scherf et al.
# Submitted via: BonkEnc v1.0.0
# 
DISCID=690a8e09
DTITLE=Sade - Diamond Life
DYEAR=1984
DGENRE=Blues
TTITLE0=Smooth Operator
TTITLE1=Your Love is King
TTITLE2=Hang on to Your Love
TTITLE3=Frankie's First Affair
TTITLE4=When am I Going to Make a Living
TTITLE5=Cherry Pie
TTITLE6=Sally
TTITLE7=I Will be Your Friend
TTITLE8=Why can't We Live Together
EXTD=CDEPC 26044 YEAR: 1984
EXTT0=
EXTT1=
EXTT2=
EXTT3=
EXTT4=
EXTT5=
EXTT6=
EXTT7=
EXTT8=
PLAYORDER=
